<svg width="18" height="18" viewBox="0 0 18 18" fill="none" xmlns="http://www.w3.org/2000/svg">
    <path fill-rule="evenodd" clip-rule="evenodd" d="M12.6041 11.4194L17.0875 15.9027C17.2451 16.0604 17.3335 16.2742 17.3335 16.4972C17.3334 16.7201 17.2447 16.9339 17.0871 17.0914C16.9294 17.249 16.7155 17.3375 16.4926 17.3374C16.2697 17.3374 16.0559 17.2487 15.8983 17.091L11.415 12.6077C10.0747 13.6458 8.38937 14.1343 6.70174 13.9738C5.01412 13.8134 3.451 13.0161 2.33037 11.744C1.20975 10.472 0.615795 8.82087 0.669346 7.12649C0.722897 5.4321 1.41993 3.82175 2.61864 2.62303C3.81735 1.42432 5.4277 0.727292 7.12209 0.67374C8.81648 0.620189 10.4676 1.21414 11.7396 2.33477C13.0117 3.45539 13.809 5.01851 13.9694 6.70614C14.1299 8.39376 13.6414 10.0791 12.6033 11.4194H12.6041ZM7.3333 12.3369C8.65938 12.3369 9.93115 11.8101 10.8688 10.8724C11.8065 9.93472 12.3333 8.66295 12.3333 7.33686C12.3333 6.01078 11.8065 4.73901 10.8688 3.80133C9.93115 2.86365 8.65938 2.33686 7.3333 2.33686C6.00722 2.33686 4.73545 2.86365 3.79777 3.80133C2.86009 4.73901 2.3333 6.01078 2.3333 7.33686C2.3333 8.66295 2.86009 9.93472 3.79777 10.8724C4.73545 11.8101 6.00722 12.3369 7.3333 12.3369Z" fill="#1A4C70"/>
</svg>
